<?xml version="1.0" encoding="UTF-8" standalone="no"?><!DOCTYPE svg PUBLIC "-//W3C//DTD SVG 1.1//EN" "http://www.w3.org/Graphics/SVG/1.1/DTD/svg11.dtd"><svg width="100%" height="100%" viewBox="0 0 200 200" version="1.1" xmlns="http://www.w3.org/2000/svg" xmlns:xlink="http://www.w3.org/1999/xlink" xml:space="preserve" xmlns:serif="http://www.serif.com/" style="fill-rule:evenodd;clip-rule:evenodd;stroke-linecap:round;stroke-linejoin:round;stroke-miterlimit:1.5;"><rect id="Logo-whitespace" serif:id="Logo whitespace" x="-50" y="-50" width="300" height="300" style="fill:none;"/><rect id="Logo" x="0" y="0" width="200" height="200" style="fill:#2e3947;"/><g><circle cx="120" cy="120" r="47" style="fill:none;stroke:#fff;stroke-width:4.06px;"/><path d="M120,73l0,94" style="fill:none;stroke:#fff;stroke-width:4.06px;"/><path d="M73,120l94,0" style="fill:none;stroke:#fff;stroke-width:4.06px;"/><path d="M120,73c-32.211,31.333 -33.104,62.667 0,94" style="fill:none;stroke:#fff;stroke-width:4.06px;"/><path d="M120,73c16.215,15.774 24.494,31.548 24.494,47.321c0,15.56 -8.055,31.119 -24.494,46.679" style="fill:none;stroke:#fff;stroke-width:4.06px;"/><path d="M151.577,86.314c-10.633,7.419 -21.266,11.18 -31.898,11.18c-10.489,0 -20.977,-3.66 -31.465,-11.081" style="fill:none;stroke:#fff;stroke-width:4.06px;"/><path d="M151.577,153.686c-10.633,-7.419 -21.266,-11.18 -31.898,-11.18c-10.489,0 -20.977,3.66 -31.465,11.081" style="fill:none;stroke:#fff;stroke-width:4.06px;"/></g><g><rect x="162.53" y="162.471" width="20" height="20" style="fill:#fff;"/><path d="M185.029,184.97l-24.999,0l0,-24.999l24.999,0l0,24.999Zm-19.999,-19.999l0,14.999l14.999,0l0,-14.999l-14.999,0Z" style="fill:#2e3947;"/><rect x="142.53" y="162.471" width="20" height="20" style="fill:#fff;"/><path d="M165.03,184.97l-25,0l0,-24.999l25,0l0,24.999Zm-20,-19.999l0,14.999l15,0l0,-14.999l-15,0Z" style="fill:#2e3947;"/><rect x="123" y="162.471" width="20" height="20" style="fill:#fff;"/><path d="M145.5,184.97l-25,0l0,-24.999l25,0l0,24.999Zm-20,-19.999l0,14.999l15,0l0,-14.999l-15,0Z" style="fill:#2e3947;"/><rect x="103.001" y="162.471" width="20" height="20" style="fill:#fff;"/><path d="M125.5,184.97l-24.999,0l0,-24.999l24.999,0l0,24.999Zm-19.999,-19.999l0,14.999l14.999,0l0,-14.999l-14.999,0Z" style="fill:#2e3947;"/><rect x="162.53" y="162.471" width="20" height="20" style="fill:#fff;"/><path d="M185.029,184.97l-24.999,0l0,-24.999l24.999,0l0,24.999Zm-19.999,-19.999l0,14.999l14.999,0l0,-14.999l-14.999,0Z" style="fill:#2e3947;"/><rect x="142.53" y="162.471" width="20" height="20" style="fill:#fff;"/><path d="M165.03,184.97l-25,0l0,-24.999l25,0l0,24.999Zm-20,-19.999l0,14.999l15,0l0,-14.999l-15,0Z" style="fill:#2e3947;"/><rect x="122.53" y="162.471" width="20" height="20" style="fill:#fff;"/><path d="M145.03,184.97l-25,0l0,-24.999l25,0l0,24.999Zm-20,-19.999l0,14.999l15,0l0,-14.999l-15,0Z" style="fill:#2e3947;"/><rect x="102.53" y="162.471" width="20" height="20" style="fill:#fff;"/><path d="M125.03,184.97l-25,0l0,-24.999l25,0l0,24.999Zm-20,-19.999l0,14.999l15,0l0,-14.999l-15,0Z" style="fill:#2e3947;"/><rect x="162.53" y="142.471" width="20" height="20" style="fill:#fff;"/><path d="M185.029,164.971l-24.999,0l0,-25l24.999,0l0,25Zm-19.999,-20l0,15l14.999,0l0,-15l-14.999,0Z" style="fill:#2e3947;"/><rect x="142.53" y="142.471" width="20" height="20" style="fill:#fff;"/><path d="M165.03,164.971l-25,0l0,-25l25,0l0,25Zm-20,-20l0,15l15,0l0,-15l-15,0Z" style="fill:#2e3947;"/><rect x="122.53" y="142.471" width="20" height="20" style="fill:#fff;"/><path d="M145.03,164.971l-25,0l0,-25l25,0l0,25Zm-20,-20l0,15l15,0l0,-15l-15,0Z" style="fill:#2e3947;"/><rect x="162.53" y="122.471" width="20" height="20" style="fill:#fff;"/><path d="M185.029,144.971l-24.999,0l0,-25l24.999,0l0,25Zm-19.999,-20l0,15l14.999,0l0,-15l-14.999,0Z" style="fill:#2e3947;"/><rect x="142.53" y="122.471" width="20" height="20" style="fill:#fff;"/><path d="M165.03,144.971l-25,0l0,-25l25,0l0,25Zm-20,-20l0,15l15,0l0,-15l-15,0Z" style="fill:#2e3947;"/><rect x="162.53" y="102.472" width="20" height="20" style="fill:#fff;"/><path d="M185.029,124.971l-24.999,0l0,-24.999l24.999,0l0,24.999Zm-19.999,-19.999l0,14.999l14.999,0l0,-14.999l-14.999,0Z" style="fill:#2e3947;"/><rect x="142.53" y="102.472" width="20" height="20" style="fill:#fff;"/><path d="M165.03,124.971l-25,0l0,-24.999l25,0l0,24.999Zm-20,-19.999l0,14.999l15,0l0,-14.999l-15,0Z" style="fill:#2e3947;"/><rect x="122.53" y="122.471" width="20" height="20" style="fill:#fff;"/><path d="M145.03,144.971l-25,0l0,-25l25,0l0,25Zm-20,-20l0,15l15,0l0,-15l-15,0Z" style="fill:#2e3947;"/><rect x="102.53" y="142.471" width="20" height="20" style="fill:#fff;"/><path d="M125.03,164.971l-25,0l0,-25l25,0l0,25Zm-20,-20l0,15l15,0l0,-15l-15,0Z" style="fill:#2e3947;"/></g><g><path d="M9,47.39l39.39,-39.39l0,19.695l-19.695,19.695l19.695,19.695l0,19.695l-39.39,-39.39Z" style="fill:#fff;fill-rule:nonzero;"/><path d="M34.322,47.39l14.068,-14.068l0,28.136l-14.068,-14.068Z" style="fill:#fff;fill-rule:nonzero;"/><path d="M92,47.39l-40.797,-39.39l0,19.695l19.695,19.695l-19.695,19.695l0,19.695l40.797,-39.39Z" style="fill:#fff;fill-rule:nonzero;"/></g></svg>